<svg width="24" height="22" viewBox="0 0 24 22" fill="none" xmlns="http://www.w3.org/2000/svg">
<g clip-path="url(#clip0_1367_51147)">
<path d="M0 1.56826V19.5876C0 20.4501 0.705652 21.1559 1.56811 21.1559H12.3332C20.4717 21.1559 24 16.6001 24 10.5544C24 4.54012 20.4717 0 12.3332 0H1.56811C0.705652 0 0 0.705718 0 1.56826Z" fill="white"/>
<path d="M7.20557 4.42251V17.7371H12.9998C18.2608 17.7371 20.5424 14.7652 20.5424 10.5623C20.5424 6.53967 18.2608 3.41882 12.9998 3.41882H8.20916C7.65248 3.41882 7.20557 3.87362 7.20557 4.42251Z" fill="#CC0066"/>
<path d="M12.3333 19.7208H2.9717C2.1406 19.7208 1.46631 19.0465 1.46631 18.2153V2.94828C1.46631 2.1171 2.1406 1.44275 2.9717 1.44275H12.3333C21.2167 1.44275 22.5418 7.15906 22.5418 10.5622C22.5418 16.4667 18.9116 19.7208 12.3333 19.7208ZM2.9717 1.94459C2.41502 1.94459 1.96811 2.39155 1.96811 2.94828V18.2153C1.96811 18.772 2.41502 19.219 2.9717 19.219H12.3333C18.5901 19.219 22.04 16.1452 22.04 10.5622C22.04 3.0659 15.9557 1.94459 12.3333 1.94459H2.9717V1.94459Z" fill="black"/>
<path d="M9.24412 8.76663C9.44797 8.76663 9.63614 8.798 9.81648 8.86073C9.99681 8.92346 10.1458 9.02539 10.2791 9.15085C10.4045 9.28416 10.5064 9.44882 10.5849 9.63702C10.6554 9.83305 10.6946 10.0604 10.6946 10.3271C10.6946 10.5623 10.6633 10.774 10.6084 10.97C10.5457 11.1661 10.4594 11.3386 10.3418 11.4797C10.2242 11.6209 10.0752 11.7306 9.89488 11.8169C9.71455 11.8953 9.50285 11.9424 9.2598 11.9424H7.8877V8.75879H9.24412V8.76663ZM9.19707 11.3621C9.299 11.3621 9.39309 11.3464 9.49501 11.3151C9.5891 11.2837 9.67535 11.2288 9.74591 11.1504C9.81648 11.072 9.8792 10.9779 9.92624 10.8524C9.97329 10.727 9.99681 10.5858 9.99681 10.4055C9.99681 10.2486 9.98113 10.0997 9.94977 9.97419C9.9184 9.84873 9.86352 9.73111 9.79296 9.64486C9.72239 9.5586 9.6283 9.48019 9.51069 9.43314C9.39309 9.38609 9.25196 9.36257 9.07946 9.36257H8.57767V11.3699H9.19707V11.3621Z" fill="white"/>
<path d="M13.5251 8.76663V9.35473H11.8472V10.0369H13.3918V10.578H11.8472V11.3543H13.5643V11.9424H11.1494V8.75879H13.5251V8.76663Z" fill="white"/>
<path d="M15.9244 8.7666L17.1162 11.9502H16.387L16.1439 11.2445H14.9522L14.7013 11.9502H13.9956L15.1952 8.7666H15.9244V8.7666ZM15.9636 10.7191L15.5637 9.55073H15.5559L15.1403 10.7191H15.9636Z" fill="white"/>
<path d="M18.253 8.7666V11.3621H19.8054V11.9502H17.5552V8.7666H18.253V8.7666Z" fill="white"/>
<path d="M4.58679 11.8247C5.39655 11.8247 6.05298 11.1682 6.05298 10.3584C6.05298 9.54859 5.39655 8.89209 4.58679 8.89209C3.77704 8.89209 3.12061 9.54859 3.12061 10.3584C3.12061 11.1682 3.77704 11.8247 4.58679 11.8247Z" fill="black"/>
<path d="M5.69227 17.737C4.4613 17.737 3.47339 16.7411 3.47339 15.5179V13.785C3.47339 13.1734 3.96734 12.6715 4.58675 12.6715C5.19832 12.6715 5.70011 13.1655 5.70011 13.785V17.737H5.69227Z" fill="black"/>
</g>
<defs>
<clipPath id="clip0_1367_51147">
<rect width="24" height="21.1559" fill="white"/>
</clipPath>
</defs>
</svg>
